<svg xmlns="http://www.w3.org/2000/svg" viewBox="0 0 200 200">
  <defs>
    <style>
      .cls-1 { fill: #fac775; }
      .cls-2 { fill: #efa026; }
      .cls-3 { fill: #ffffff; }
    </style>
  </defs>
  <polygon class="cls-1" points="25.8 42.93 44.8 27.38 42.87 44.27 25.8 42.93"/>
  <g>
    <polygon class="cls-3" points="86.2 74.94 100 92.38 113.73 75.02 100 51.6 86.2 74.94"/>
    <path class="cls-3" d="M56.54,37.44l7.57,9.57,11.29-18.84c-6.8,2.12-13.15,5.27-18.86,9.26Z"/>
    <path class="cls-3" d="M35.58,60.88c-5.29,9.72-8.3,20.86-8.3,32.7h0c0,4.4.42,8.69,1.21,12.86l19.08-31.83-11.99-13.73Z"/>
    <polygon class="cls-3" points="80.91 112.77 70.73 101.11 61.83 116.16 80.91 116.16 80.91 112.77"/>
    <path class="cls-3" d="M172.71,93.58h0c0-11.9-3.04-23.09-8.37-32.83l-11.97,13.77,19.14,31.93c.79-4.17,1.21-8.46,1.21-12.86Z"/>
    <polygon class="cls-3" points="129.1 101.25 119.09 112.77 119.09 116.16 137.84 116.16 129.1 101.25"/>
    <path class="cls-3" d="M80.91,134.75h-29.81l-4.08,6.92c9.1,9.22,20.79,15.86,33.89,18.76v-25.68Z"/>
    <path class="cls-3" d="M148.56,134.75h-29.47v25.68c13-2.87,24.61-9.44,33.68-18.55l-4.21-7.13Z"/>
    <path class="cls-3" d="M124.6,28.18l11.29,18.83,7.57-9.57c-5.71-4-12.06-7.15-18.86-9.26Z"/>
  </g>
  <g>
    <polygon class="cls-2" points="157.56 43.75 100.02 114.08 99.98 162.57 117.48 172.62 117.48 112.26 174.2 42.93 157.56 43.75"/>
    <polygon class="cls-1" points="100.02 114.08 99.94 94.92 155.2 27.38 157.56 43.75 100.02 114.08"/>
    <polygon class="cls-1" points="42.87 44.27 99.98 114.08 99.98 162.57 82.52 172.62 82.52 112.26 25.8 42.93 42.87 44.27"/>
    <polygon class="cls-2" points="99.98 114.08 100.06 94.92 44.8 27.38 42.87 44.27 99.98 114.08"/>
  </g>
  <polygon class="cls-2" points="155.2 27.38 174.2 42.93 157.56 43.75 155.2 27.38"/>
  <polygon class="cls-1" points="82.52 172.62 117.48 172.62 99.98 162.57 82.52 172.62"/>
</svg>
